{"title":"2 STATES (2014) - 720p - Blu-Ray - Hindi - x264 - AC3 - 5.1 -","uid":10467976,"size":1269700984,"categoryP":"video","categoryS":"hd___movies","magnet":"?xt=urn:btih:fc5fb62151342044f4df15bfdfd97a03a18f93da&amp;dn=%09+2+STATES+%282014%29+-+720p+-+Blu-Ray+-+Hindi+-+x264+-+AC3+-+5.1+-+&amp;tr=udp%3A%2F%2Ftracker.openbittorrent.com%3A80&amp;tr=udp%3A%2F%2Fopen.demonii.com%3A1337&amp;tr=udp%3A%2F%2Ftracker.coppersurfer.tk%3A6969&amp;tr=udp%3A%2F%2Fexodus.desync.com%3A6969","seeders":10,"leechers":3,"uploader":"sj631","files":4,"time":1404224028,"description":"\t\n2 STATES (2014) - 720p - Blu-Ray - Hindi - x264 - AC3 - 5.1 - Mafiaking - [D3Si MaNiaCs]\n\nIMDB Rating: 7.4/10.0\n\n\nGENRE: Drama | Romance\n\n\nGeneral\nUnique ID : 170553468003625877778244911261535965131 (0x804F673286DA75ABAF35B0A8D2600FCB)\nComplete name : 2 STATES (2014) - 720p - Blu-Ray - Hindi - x264 - AC3 - 5.1 - Mafiaking - [D3Si MaNiaCs].mkv\nFormat : Matroska\nFormat version : Version 4 / Version 2\nFile size : 1.17 GiB\nDuration : 2h 29mn\nOverall bit rate : 1 126 Kbps\nMovie name : 2 STATES (2014) - 720p - Blu-Ray - Hindi - x264 - AC3 - 5.1 - Mafiaking - [D3Si MaNiaCs]\nEncoded date : UTC 2014-06-30 15:36:07\nWriting application : mkvmerge v6.5.0 ('Isn't she lovely') built on Oct 20 2013 12:50:05\nWriting library : libebml v1.3.0 + libmatroska v1.4.1\n\n\nVideo\nID : 1\nFormat : AVC\nFormat/Info : Advanced Video Codec\nFormat profile : &lt;a class=&quot;__cf_email__&quot; href=&quot;/cdn-cgi/l/email-protection&quot; data-cfemail=&quot;3e765759567e720d100f&quot;&gt;[email&amp;#160;protected]&lt;/a&gt;&lt;script cf-hash='f9e31' type=&quot;text/javascript&quot;&gt;\n/* &lt;![CDATA[ */!function(){try{var t=&quot;currentScript&quot;in document?document.currentScript:function(){for(var t=document.getElementsByTagName(&quot;script&quot;),e=t.length;e--;)if(t[e].getAttribute(&quot;cf-hash&quot;))return t[e]}();if(t&amp;&amp;t.previousSibling){var e,r,n,i,c=t.previousSibling,a=c.getAttribute(&quot;data-cfemail&quot;);if(a){for(e=&quot;&quot;,r=parseInt(a.substr(0,2),16),n=2;a.length-n;n+=2)i=parseInt(a.substr(n,2),16)^r,e+=String.fromCharCode(i);e=document.createTextNode(e),c.parentNode.replaceChild(e,c)}}}catch(u){}}();/* ]]&gt; */&lt;/script&gt;\nFormat settings, CABAC : Yes\nFormat settings, ReFrames : 4 frames\nCodec ID : V_MPEG4/ISO/AVC\nDuration : 2h 29mn\nBit rate : 900 Kbps\nWidth : 1 280 pixels\nHeight : 544 pixels\nDisplay aspect ratio : 2.35:1\nFrame rate mode : Constant\nFrame rate : 23.976 fps\nColor space : YUV\nChroma subsampling : 4:2:0\nBit depth : 8 bits\nScan type : Progressive\nBits/(Pixel*Frame) : 0.054\nStream size : 940 MiB (78%)\nTitle : Mafiaking\nLanguage : Hindi\nDefault : Yes\nForced : No\n\n\nAudio\nID : 2\nFormat : AC-3\nFormat/Info : Audio Coding 3\nMode extension : CM (complete main)\nFormat settings, Endianness : Big\nCodec ID : A_AC3\nDuration : 2h 29mn\nBit rate mode : Constant\nBit rate : 224 Kbps\nChannel(s) : 6 channels\nChannel positions : Front: L C R, Side: L R, LFE\nSampling rate : 48.0 KHz\nBit depth : 16 bits\nCompression mode : Lossy\nStream size : 239 MiB (20%)\nTitle : Mafiaking\nLanguage : Hindi\nDefault : Yes\nForced : No\n\n\nScreen:\n &lt;a href=&quot;\nhttp://imgfun.biz/x/img-53b2a5d80b4ac.html&quot; rel=&quot;nofollow&quot; target=&quot;_NEW&quot;&gt;\nhttp://imgfun.biz/x/img-53b2a5d80b4ac.html&lt;/a&gt;\n &lt;a href=&quot;\nhttp://imgfun.biz/x/img-53b2a5e9b425e.html&quot; rel=&quot;nofollow&quot; target=&quot;_NEW&quot;&gt;\nhttp://imgfun.biz/x/img-53b2a5e9b425e.html&lt;/a&gt;","torrent":{"xt":"urn:btih:fc5fb62151342044f4df15bfdfd97a03a18f93da","amp;dn":"%09+2+STATES+%282014%29+-+720p+-+Blu-Ray+-+Hindi+-+x264+-+AC3+-+5.1+-+","amp;tr":["udp%3A%2F%2Ftracker.openbittorrent.com%3A80","udp%3A%2F%2Fopen.demonii.com%3A1337","udp%3A%2F%2Ftracker.coppersurfer.tk%3A6969","udp%3A%2F%2Fexodus.desync.com%3A6969"],"infoHash":"fc5fb62151342044f4df15bfdfd97a03a18f93da","infoHashBuffer":{"type":"Buffer","data":[252,95,182,33,81,52,32,68,244,223,21,191,223,217,122,3,161,143,147,218]},"announce":[],"urlList":[]}}